<?xml version="1.0" standalone="no"?>
<!DOCTYPE svg PUBLIC "-//W3C//DTD SVG 20010904//EN"
 "http://www.w3.org/TR/2001/REC-SVG-20010904/DTD/svg10.dtd">
<svg version="1.0" xmlns="http://www.w3.org/2000/svg"
 width="300.000000pt" height="300.000000pt" viewBox="0 0 300.000000 300.000000"
 preserveAspectRatio="xMidYMid meet">
<metadata>
Created by potrace 1.11, written by Peter Selinger 2001-2013
</metadata>
<g transform="translate(0.000000,300.000000) scale(0.100000,-0.100000)"
fill="#000000" stroke="none">
<path d="M1340 2973 c-193 -22 -321 -59 -481 -138 -498 -245 -816 -738 -833
-1290 -25 -815 617 -1501 1431 -1528 569 -20 1101 294 1363 803 220 430 219
940 -5 1368 -73 139 -151 246 -266 361 -119 120 -240 206 -394 282 -269 131
-528 177 -815 142z m325 -48 c33 -4 67 -8 75 -10 8 -2 31 -6 50 -9 19 -4 60
-13 90 -22 781 -216 1228 -1033 989 -1807 -147 -479 -530 -844 -1013 -967
-296 -75 -618 -52 -898 65 -538 225 -891 762 -882 1340 1 91 12 204 24 244 5
17 9 34 9 36 -1 17 16 82 42 162 173 531 677 930 1224 970 44 3 81 6 82 7 5 4
152 -3 208 -9z"/>
<path d="M350 1493 l0 -713 85 0 c95 0 87 -7 85 85 0 28 0 57 0 65 0 8 0 62 0
120 -1 58 -1 112 -1 120 1 8 1 116 0 240 0 124 0 232 1 240 0 8 0 71 0 139 l0
125 31 -60 c17 -32 36 -62 42 -66 7 -4 9 -8 5 -8 -4 0 8 -26 27 -57 20 -32 43
-75 51 -95 9 -21 20 -38 25 -38 5 0 9 -4 9 -9 0 -8 53 -106 182 -339 21 -37
52 -93 69 -126 17 -32 36 -65 42 -73 38 -47 55 -60 78 -57 13 1 31 3 40 3 34
2 56 33 136 191 15 30 30 57 34 60 3 3 34 59 69 125 35 66 66 122 70 125 4 3
17 29 30 58 13 28 28 52 32 52 5 0 7 4 4 9 -4 5 -3 11 1 13 5 1 20 26 34 53
40 77 101 188 116 210 11 16 13 -69 13 -543 l0 -563 98 3 97 3 2 270 c0 149 2
282 2 297 l1 27 97 -3 98 -4 43 -48 c24 -27 55 -68 69 -91 14 -24 29 -43 34
-43 5 0 9 -4 9 -10 0 -11 191 -273 202 -278 5 -2 8 -9 8 -16 0 -6 20 -33 43
-59 l44 -47 102 0 c79 0 101 3 95 12 -4 7 -31 45 -60 83 -28 39 -61 86 -73
105 -11 19 -21 31 -21 26 0 -6 -13 11 -29 36 -16 25 -36 54 -44 64 -9 10 -39
51 -67 89 -28 39 -56 77 -63 85 -7 8 -23 31 -37 50 -13 19 -35 45 -49 57 l-24
21 36 7 c21 4 37 11 37 15 0 4 12 11 28 15 50 12 149 89 178 140 32 54 53 103
59 135 14 83 13 107 -9 226 -1 6 -17 36 -36 68 -40 65 -123 129 -194 148 -25
7 -46 16 -46 21 0 4 -4 5 -10 2 -5 -3 -19 -1 -30 5 -15 8 -20 8 -20 -2 0 -8
-3 -9 -8 -3 -4 6 -14 10 -22 10 -8 -1 -23 3 -32 7 -12 6 -18 5 -18 -4 0 -8 -3
-9 -8 -3 -4 7 -92 11 -249 10 -229 0 -243 -1 -262 -20 -17 -18 -57 -89 -115
-203 -10 -20 -21 -39 -25 -42 -3 -3 -18 -30 -34 -60 -43 -86 -71 -136 -86
-154 -7 -9 -10 -16 -6 -16 5 0 1 -8 -7 -17 -9 -10 -26 -38 -38 -63 -13 -25
-27 -48 -32 -51 -5 -3 -9 -9 -9 -13 1 -8 -59 -129 -68 -136 -3 -3 -17 -27 -31
-55 -13 -27 -28 -53 -33 -56 -5 -3 -8 -9 -8 -12 0 -4 -10 -29 -23 -56 l-22
-49 -47 91 c-26 51 -61 117 -78 147 -17 30 -49 89 -72 130 -22 41 -42 77 -46
80 -3 3 -18 28 -32 55 -22 42 -63 116 -160 290 -10 17 -30 55 -46 85 -15 30
-36 64 -45 74 -10 11 -18 26 -18 33 0 8 -4 11 -10 8 -5 -3 -10 -2 -10 2 0 5
-40 9 -90 9 l-90 0 0 -713z m1540 552 c0 11 174 11 258 0 166 -21 251 -110
246 -258 -3 -61 -30 -147 -47 -147 -6 0 -7 -3 -4 -6 8 -9 -74 -71 -116 -89
-19 -8 -56 -17 -83 -20 -78 -11 -275 -11 -282 -1 -8 14 -7 500 2 522 6 16 9
16 16 4 6 -8 10 -10 10 -5z"/>
</g>
</svg>
