<?xml version="1.0" standalone="no"?>
<!DOCTYPE svg PUBLIC "-//W3C//DTD SVG 20010904//EN"
 "http://www.w3.org/TR/2001/REC-SVG-20010904/DTD/svg10.dtd">
<svg version="1.0" xmlns="http://www.w3.org/2000/svg"
 width="300.000000pt" height="300.000000pt" viewBox="0 0 300.000000 300.000000"
 preserveAspectRatio="xMidYMid meet">
<metadata>
Created by potrace 1.11, written by Peter Selinger 2001-2013
</metadata>
<g transform="translate(0.000000,300.000000) scale(0.100000,-0.100000)"
fill="#000000" stroke="none">
<path d="M1376 2978 c-159 -16 -244 -35 -381 -85 -400 -147 -724 -469 -874
-868 -32 -86 -66 -212 -76 -285 -3 -25 -9 -54 -12 -65 -14 -46 -4 -322 15
-431 97 -541 472 -977 990 -1151 58 -19 117 -37 131 -40 14 -2 44 -8 66 -13
22 -5 71 -12 108 -15 329 -33 650 36 917 198 242 147 437 356 562 602 217 426
216 930 -2 1355 -249 483 -747 794 -1289 804 -47 1 -117 -2 -155 -6z m284 -53
c87 -9 120 -15 200 -36 636 -166 1074 -734 1072 -1389 -1 -378 -141 -727 -399
-995 -380 -395 -946 -537 -1470 -369 -43 13 -132 51 -198 84 -534 266 -847
842 -781 1440 8 74 9 80 31 174 141 594 668 1051 1260 1093 44 3 81 6 82 7 4
4 151 -3 203 -9z"/>
<path d="M2216 2349 c-25 -9 -61 -26 -80 -38 -38 -24 -136 -126 -136 -142 0
-6 -3 -8 -8 -5 -4 2 -7 45 -6 95 l2 91 -122 0 -121 0 -1 -593 c-1 -501 -4
-601 -17 -648 -65 -239 -236 -363 -483 -354 -167 7 -308 95 -380 237 -57 113
-57 105 -60 733 -2 319 -4 590 -4 603 0 22 -2 22 -120 22 l-120 0 1 -582 c0
-610 4 -667 43 -776 74 -204 226 -352 431 -418 101 -33 300 -42 407 -19 274
59 464 251 526 530 12 56 16 150 17 465 2 388 2 396 24 435 33 58 98 121 150
146 52 24 164 31 226 14 76 -21 81 -16 101 136 l6 46 -43 18 c-60 24 -175 26
-233 4z"/>
</g>
</svg>
